<svg xmlns="http://www.w3.org/2000/svg" viewBox="572.501 205.083 54.975 54.629"><defs><style>.cls-1{fill:#1d1d1b;font-size:4px;font-family:Helvetica}</style></defs><g id="Group_6" data-name="Group 6" transform="translate(-50 180)"><text id="N" class="cls-1" transform="rotate(-165.28 327.722 -3.285)"><tspan x="0" y="0">N</tspan></text><text id="o" class="cls-1" transform="rotate(-156.983 328.576 -27.458)"><tspan x="0" y="0">o</tspan></text><text id="r" class="cls-1" transform="rotate(-150.7 329.096 -46.39)"><tspan x="0" y="0">r</tspan></text><text id="m" class="cls-1" transform="rotate(-142.664 330.819 -70.88)"><tspan x="0" y="0">m</tspan></text><text id="a" class="cls-1" transform="rotate(-133.857 331.65 -99.596)"><tspan x="0" y="0">a</tspan></text><text id="M-2" data-name="M" class="cls-1" transform="rotate(-121.434 333.943 -143.1)"><tspan x="0" y="0">M</tspan></text><text id="e" class="cls-1" transform="rotate(-112.644 334.997 -177.582)"><tspan x="0" y="0">e</tspan></text><text id="x" class="cls-1" transform="scale(-1) rotate(74.46 -273.409 -442.415)"><tspan x="0" y="0">x</tspan></text><text id="i" class="cls-1" transform="rotate(-100.073 337.083 -233.536)"><tspan x="0" y="0">i</tspan></text><text id="c" class="cls-1" transform="rotate(-95.1 338.479 -258.143)"><tspan x="0" y="0">c</tspan></text><text id="a-2" data-name="a" class="cls-1" transform="matrix(.025 -1 1 .025 625.5 53.347)"><tspan x="0" y="0">a</tspan></text><text id="n-2" data-name="n" class="cls-1" transform="rotate(-81.483 342.01 -337.96)"><tspan x="0" y="0">n</tspan></text><text id="a-3" data-name="a" class="cls-1" transform="rotate(-74.324 344.216 -389.32)"><tspan x="0" y="0">a</tspan></text><text id="e-2" data-name="e" class="cls-1" transform="rotate(-63.64 348.377 -484.14)"><tspan x="0" y="0">e</tspan></text><text id="n-3" data-name="n" class="cls-1" transform="rotate(-56.63 351.897 -563.393)"><tspan x="0" y="0">n</tspan></text><text id="I-2" data-name="I" class="cls-1" transform="rotate(-47.497 357.316 -699.381)"><tspan x="0" y="0">I</tspan></text><text id="g" class="cls-1" transform="rotate(-41.96 362.39 -807.173)"><tspan x="0" y="0">g</tspan></text><text id="u" class="cls-1" transform="rotate(-34.74 370.67 -998.059)"><tspan x="0" y="0">u</tspan></text><text id="a-4" data-name="a" class="cls-1" transform="rotate(-27.621 382.852 -1280.826)"><tspan x="0" y="0">a</tspan></text><text id="l" class="cls-1" transform="rotate(-22.18 396.209 -1616.039)"><tspan x="0" y="0">l</tspan></text><text id="d" class="cls-1" transform="rotate(-16.744 421.34 -2165.083)"><tspan x="0" y="0">d</tspan></text><text id="a-5" data-name="a" class="cls-1" transform="rotate(-9.567 494.117 -3837.098)"><tspan x="0" y="0">a</tspan></text><text id="d-2" data-name="d" class="cls-1" transform="rotate(-2.505 968.904 -14793.477)"><tspan x="0" y="0">d</tspan></text><text id="L-2" data-name="L" class="cls-1" transform="rotate(7.81 119.492 4786.898)"><tspan x="0" y="0">L</tspan></text><text id="a-6" data-name="a" class="cls-1" transform="rotate(14.6 215.478 2571.337)"><tspan x="0" y="0">a</tspan></text><text id="b" class="cls-1" transform="rotate(21.819 252.679 1721.064)"><tspan x="0" y="0">b</tspan></text><text id="o-2" data-name="o" class="cls-1" transform="rotate(29.144 271.568 1285.949)"><tspan x="0" y="0">o</tspan></text><text id="r-2" data-name="r" class="cls-1" transform="rotate(35.464 281.453 1053.383)"><tspan x="0" y="0">r</tspan></text><text id="a-7" data-name="a" class="cls-1" transform="rotate(41.566 288.56 893.099)"><tspan x="0" y="0">a</tspan></text><text id="l-3" data-name="l" class="cls-1" transform="rotate(46.9 292.937 787.2)"><tspan x="0" y="0">l</tspan></text><text id="y" class="cls-1" transform="rotate(55.903 299.112 649.82)"><tspan x="0" y="0">y</tspan></text><text id="N-4" data-name="N" class="cls-1" transform="rotate(67.71 304.906 521.677)"><tspan x="0" y="0">N</tspan></text><text id="o-3" data-name="o" class="cls-1" transform="rotate(76 307.727 453.853)"><tspan x="0" y="0">o</tspan></text><text id="D-3" data-name="D" class="cls-1" transform="rotate(87.7 311.27 375.916)"><tspan x="0" y="0">D</tspan></text><text id="i-3" data-name="i" class="cls-1" transform="rotate(93.84 312.029 342.201)"><tspan x="0" y="0">i</tspan></text><text id="s" class="cls-1" transform="rotate(98.673 313.45 317.284)"><tspan x="0" y="0">s</tspan></text><text id="c-2" data-name="c" class="cls-1" transform="rotate(104.898 314.75 287.994)"><tspan x="0" y="0">c</tspan></text><text id="r-3" data-name="r" class="cls-1" transform="rotate(110.738 315.753 262.708)"><tspan x="0" y="0">r</tspan></text><text id="i-4" data-name="i" class="cls-1" transform="rotate(115.227 316.353 244.494)"><tspan x="0" y="0">i</tspan></text><text id="m-3" data-name="m" class="cls-1" transform="rotate(122.371 318.317 216.731)"><tspan x="0" y="0">m</tspan></text><text id="i-5" data-name="i" class="cls-1" transform="rotate(129.489 318.637 191.71)"><tspan x="0" y="0">i</tspan></text><text id="n-5" data-name="n" class="cls-1" transform="rotate(134.83 319.844 173.444)"><tspan x="0" y="0">n</tspan></text><text id="a-8" data-name="a" class="cls-1" transform="rotate(141.9 320.773 150.52)"><tspan x="0" y="0">a</tspan></text><text id="c-3" data-name="c" class="cls-1" transform="rotate(148.519 321.589 129.995)"><tspan x="0" y="0">c</tspan></text><text id="i-6" data-name="i" class="cls-1" transform="scale(-1) rotate(-26.54 -488.047 1364.628)"><tspan x="0" y="0">i</tspan></text><text id="รณ" class="cls-1" transform="rotate(158.973 323.07 98.736)"><tspan x="0" y="0">รณ</tspan></text><text id="n-6" data-name="n" class="cls-1" transform="rotate(166.285 323.98 77.55)"><tspan x="0" y="0">n</tspan></text><g id="Group_5" data-name="Group 5"><path id="Path_9" data-name="Path 9" d="M651.1 78.2a1.1 1.1 0 1 0-1.1 1.1 1 1 0 0 0 1.1-1.1" style="fill:#1d1d1b"/><path id="Path_10" data-name="Path 10" d="M664 52.6a1.6 1.6 0 1 0-1.6 1.6 1.58 1.58 0 0 0 1.6-1.6m-1.5-6.5c-.8.5.2 2.6 1 3.9a5.787 5.787 0 0 1 1.2 2.7c0 1-.5 1.6-1.2 2.7-.8 1.3-1.8 3.3-1 3.9.8.5 1.4-2.6 3.9-4 1.8-1 5.6.5 5.6-2.5s-3.8-1.5-5.6-2.5c-2.5-1.6-3.1-4.7-3.9-4.2" style="fill:#93c01f"/><path id="Path_11" data-name="Path 11" d="M643 40.5a1.612 1.612 0 1 1-.6 2.2 1.657 1.657 0 0 1 .6-2.2m6.4-2c0 1-2.3 1.1-3.8 1.1a6.306 6.306 0 0 0-2.9.3c-.8.5-1.1 1.2-1.7 2.4-.7 1.3-1.9 3.3-2.8 2.8-.9-.4 1.5-2.5 1.5-5.4 0-2.1-3.3-4.6-.7-6.1 2.5-1.5 3.2 2.6 5 3.6 2.4 1.4 5.4.3 5.4 1.3" style="fill:#e5332a"/><path id="Path_12" data-name="Path 12" d="M643 64.7a1.612 1.612 0 1 0-.6-2.2 1.609 1.609 0 0 0 .6 2.2m6.4 2.1c0-1-2.3-1.1-3.8-1.1a6.306 6.306 0 0 1-2.9-.3c-.8-.5-1.1-1.2-1.7-2.4-.7-1.3-1.9-3.3-2.8-2.8-.9.4 1.5 2.5 1.5 5.4 0 2.1-3.3 4.6-.7 6.1 2.5 1.5 3.2-2.6 5-3.6 2.4-1.4 5.4-.3 5.4-1.3" style="fill:#f29100"/><path id="Path_13" data-name="Path 13" d="M636.4 51.7a1.817 1.817 0 0 0 0 2 1.617 1.617 0 0 0 1.6 1.4h.1a1.269 1.269 0 0 1-.1-.6v-.2a1.635 1.635 0 0 0 0-3.2v-.2a1.269 1.269 0 0 1 .1-.6h-.1a1.537 1.537 0 0 0-1.6 1.4m1.1 7.5c.8-.5-.2-2.6-1-3.9a5.787 5.787 0 0 1-1.2-2.7c0-1 .5-1.6 1.2-2.7.8-1.3 1.8-3.3 1-3.9-.8-.5-1.4 2.6-3.9 4-1.8 1-5.6-.5-5.6 2.5s3.8 1.5 5.6 2.5c2.5 1.6 3.1 4.7 3.9 4.2" style="fill:#7a6a58"/><path id="Path_14" data-name="Path 14" d="M655.9 64.9a1.8 1.8 0 0 0 1-.2 1.779 1.779 0 0 0 .7-.8 1.685 1.685 0 0 0 .4-2.1.1.1 0 0 0-.1-.1l-.4.4c-.1 0-.1.1-.2.1a1.546 1.546 0 0 0-2-.3 1.506 1.506 0 0 0-.7 1.9c-.1 0-.1.1-.2.1a1.69 1.69 0 0 1-.5.2v.1a1.445 1.445 0 0 0 2 .7m5.9-4.8c-.9-.4-2.1 1.5-2.8 2.8-.6 1.1-.9 1.9-1.7 2.4a5.2 5.2 0 0 1-2.9.3c-1.5 0-3.8.1-3.8 1.1s2.9-.1 5.4 1.3c1.8 1 2.5 5.1 5 3.6 2.5-1.5-.7-4.1-.7-6.1 0-2.8 2.4-4.9 1.5-5.4" style="fill:#662482"/><path id="Path_15" data-name="Path 15" d="M657.6 41.4a1.779 1.779 0 0 0-.7-.8 1.232 1.232 0 0 0-1-.2 1.63 1.63 0 0 0-2 .7v.1a.764.764 0 0 1 .5.2c.1 0 .1.1.2.1a1.619 1.619 0 0 0 .7 1.9 1.529 1.529 0 0 0 2-.3c.1 0 .1.1.2.1a.781.781 0 0 1 .4.4.1.1 0 0 1 .1-.1 1.48 1.48 0 0 0-.4-2.1m-7-2.9c0 1 2.3 1.1 3.8 1.1a6.306 6.306 0 0 1 2.9.3c.8.5 1.1 1.2 1.7 2.4.7 1.3 1.9 3.3 2.8 2.8.9-.4-1.5-2.5-1.5-5.4 0-2.1 3.3-4.6.7-6.1-2.6-1.5-3.2 2.6-5 3.6-2.5 1.4-5.4.3-5.4 1.3" style="fill:#35a8e0"/></g></g></svg>